<svg width="780" height="549" viewBox="0 0 780 549" fill="none" xmlns="http://www.w3.org/2000/svg">
<g opacity="0.05">
<path fill-rule="evenodd" clip-rule="evenodd" d="M113.707 -546.885C258.298 -547.36 431.295 -307.987 451.187 -136.136C469.897 25.5007 415.875 245.782 302.855 291.972C162.329 349.404 -45.8534 174.744 -88.272 -87.0207C-130.691 -348.785 -30.8829 -546.409 113.707 -546.885ZM114.501 -518.62C247.5 -519.058 406.629 -298.875 424.926 -140.8C442.136 7.87767 412.618 210.608 289.129 261.077C147.085 319.13 -17.6298 142.313 -71.2855 -95.6231C-127.315 -344.084 -18.4973 -518.183 114.501 -518.62Z" fill="white"/>
<path fill-rule="evenodd" clip-rule="evenodd" d="M403.545 -450.039C490.005 -353.439 490.101 -133.057 269.023 86.5723C153.515 201.323 -58.178 283.012 -186.729 192.278C-311.872 103.95 -276.513 -140.194 -96.5714 -335.211C89.4511 -536.819 317.084 -546.639 403.545 -450.039ZM397.714 -418.466C475.437 -310.634 378.197 -57.5111 266.177 57.9162C161.876 165.39 -40.5389 244.859 -153.415 173.925C-283.252 92.332 -237.434 -150.795 -75.1623 -333.116C94.2877 -523.502 319.991 -526.297 397.714 -418.466Z" fill="white"/>
<path fill-rule="evenodd" clip-rule="evenodd" d="M554.414 24.7279C510.939 136.872 315.174 248.95 17.4192 177.201C-138.15 139.714 -335.605 20.4345 -317.316 -121.933C-299.513 -260.526 -41.7956 -336.781 199.69 -288.877C464.959 -236.255 597.889 -87.4161 554.414 24.7279ZM511.91 38.6915C459.796 158.785 173.078 205.867 25.595 162.385C-170.515 104.565 -308.374 -13.2753 -274.445 -133.09C-236.431 -267.333 -0.7111 -308.971 208.051 -271.156C455.59 -226.317 564.025 -81.402 511.91 38.6915Z" fill="white"/>
</g>
</svg>
