<svg width="40" height="40" viewBox="0 0 40 40" fill="none" xmlns="http://www.w3.org/2000/svg">
<path fill-rule="evenodd" clip-rule="evenodd" d="M40 0H0V40H40V0ZM21.3333 13C21.3333 12.4477 20.8856 12 20.3333 12C19.781 12 19.3333 12.4477 19.3333 13V19.3333H13C12.4477 19.3333 12 19.781 12 20.3333C12 20.8856 12.4477 21.3333 13 21.3333H19.3333V27.6667C19.3333 28.219 19.781 28.6667 20.3333 28.6667C20.8856 28.6667 21.3333 28.219 21.3333 27.6667V21.3333H27.6667C28.219 21.3333 28.6667 20.8856 28.6667 20.3333C28.6667 19.781 28.219 19.3333 27.6667 19.3333H21.3333V13Z" fill="#0856A0"/>
</svg>
